<svg data-v-423bf9ae="" xmlns="http://www.w3.org/2000/svg" viewBox="0 0 364 90" class="iconLeft"><!----><!----><defs data-v-423bf9ae=""><linearGradient data-v-423bf9ae="" gradientTransform="rotate(25)" id="bb50b4a3-060b-4059-a739-9b072e48a043" x1="0%" y1="0%" x2="100%" y2="0%"><stop data-v-423bf9ae="" offset="0%" style="stop-color: rgb(218, 47, 104); stop-opacity: 1;"></stop><stop data-v-423bf9ae="" offset="100%" style="stop-color: rgb(248, 158, 0); stop-opacity: 1;"></stop></linearGradient></defs><g data-v-423bf9ae="" id="a11bcbbd-e18f-468a-a913-56dc82417dbb" fill="url(#bb50b4a3-060b-4059-a739-9b072e48a043)" transform="matrix(5.725191089769513,0,0,5.725191089769513,110.87618616522184,-5.782443357385141)"><path d="M0.95 14L0.95 14Q0.84 14 0.77 13.93L0.77 13.93L0.77 13.93Q0.70 13.86 0.70 13.75L0.70 13.75L0.70 4.45L0.70 4.45Q0.70 4.34 0.77 4.27L0.77 4.27L0.77 4.27Q0.84 4.20 0.95 4.20L0.95 4.20L2.76 4.20L2.76 4.20Q2.95 4.20 3.05 4.37L3.05 4.37L4.91 7.38L4.91 7.38Q4.98 7.48 5.05 7.38L5.05 7.38L6.93 4.37L6.93 4.37Q7.03 4.20 7.22 4.20L7.22 4.20L9.03 4.20L9.03 4.20Q9.14 4.20 9.21 4.27L9.21 4.27L9.21 4.27Q9.28 4.34 9.28 4.45L9.28 4.45L9.28 13.75L9.28 13.75Q9.28 13.86 9.21 13.93L9.21 13.93L9.21 13.93Q9.14 14 9.03 14L9.03 14L7.21 14L7.21 14Q7.10 14 7.03 13.93L7.03 13.93L7.03 13.93Q6.96 13.86 6.96 13.75L6.96 13.75L6.96 8.27L6.96 8.27Q6.96 8.20 6.92 8.19L6.92 8.19L6.92 8.19Q6.87 8.18 6.85 8.25L6.85 8.25L5.71 10.09L5.71 10.09Q5.61 10.26 5.42 10.26L5.42 10.26L4.56 10.26L4.56 10.26Q4.37 10.26 4.27 10.09L4.27 10.09L3.14 8.25L3.14 8.25Q3.11 8.18 3.07 8.19L3.07 8.19L3.07 8.19Q3.02 8.20 3.02 8.27L3.02 8.27L3.02 13.75L3.02 13.75Q3.02 13.86 2.95 13.93L2.95 13.93L2.95 13.93Q2.88 14 2.77 14L2.77 14L0.95 14ZM13.89 14.11L13.89 14.11Q12.63 14.11 11.75 13.44L11.75 13.44L11.75 13.44Q10.88 12.77 10.57 11.62L10.57 11.62L10.57 11.62Q10.40 11.05 10.40 10.36L10.40 10.36L10.40 10.36Q10.40 9.66 10.58 9.00L10.58 9.00L10.58 9.00Q10.91 7.90 11.78 7.27L11.78 7.27L11.78 7.27Q12.66 6.65 13.90 6.65L13.90 6.65L13.90 6.65Q15.13 6.65 15.99 7.27L15.99 7.27L15.99 7.27Q16.84 7.90 17.18 8.99L17.18 8.99L17.18 8.99Q17.37 9.62 17.37 10.33L17.37 10.33L17.37 10.33Q17.37 10.98 17.22 11.56L17.22 11.56L17.22 11.56Q16.93 12.74 16.04 13.43L16.04 13.43L16.04 13.43Q15.16 14.11 13.89 14.11L13.89 14.11ZM13.89 12.12L13.89 12.12Q14.29 12.12 14.57 11.87L14.57 11.87L14.57 11.87Q14.84 11.61 14.95 11.16L14.95 11.16L14.95 11.16Q15.04 10.79 15.04 10.36L15.04 10.36L15.04 10.36Q15.04 9.94 14.94 9.55L14.94 9.55L14.94 9.55Q14.83 9.11 14.56 8.88L14.56 8.88L14.56 8.88Q14.29 8.64 13.89 8.64L13.89 8.64L13.89 8.64Q13.47 8.64 13.21 8.88L13.21 8.88L13.21 8.88Q12.95 9.11 12.84 9.55L12.84 9.55L12.84 9.55Q12.74 9.86 12.74 10.36L12.74 10.36L12.74 10.36Q12.74 10.79 12.82 11.16L12.82 11.16L12.82 11.16Q12.95 11.61 13.22 11.87L13.22 11.87L13.22 11.87Q13.48 12.12 13.89 12.12L13.89 12.12ZM21.70 14.11L21.70 14.11Q20.44 14.11 19.57 13.44L19.57 13.44L19.57 13.44Q18.69 12.77 18.38 11.62L18.38 11.62L18.38 11.62Q18.21 11.05 18.21 10.36L18.21 10.36L18.21 10.36Q18.21 9.66 18.40 9.00L18.40 9.00L18.40 9.00Q18.72 7.90 19.59 7.27L19.59 7.27L19.59 7.27Q20.47 6.65 21.71 6.65L21.71 6.65L21.71 6.65Q22.95 6.65 23.80 7.27L23.80 7.27L23.80 7.27Q24.65 7.90 24.99 8.99L24.99 8.99L24.99 8.99Q25.19 9.62 25.19 10.33L25.19 10.33L25.19 10.33Q25.19 10.98 25.03 11.56L25.03 11.56L25.03 11.56Q24.74 12.74 23.86 13.43L23.86 13.43L23.86 13.43Q22.97 14.11 21.70 14.11L21.70 14.11ZM21.70 12.12L21.70 12.12Q22.11 12.12 22.38 11.87L22.38 11.87L22.38 11.87Q22.65 11.61 22.76 11.16L22.76 11.16L22.76 11.16Q22.85 10.79 22.85 10.36L22.85 10.36L22.85 10.36Q22.85 9.94 22.75 9.55L22.75 9.55L22.75 9.55Q22.64 9.11 22.37 8.88L22.37 8.88L22.37 8.88Q22.11 8.64 21.70 8.64L21.70 8.64L21.70 8.64Q21.28 8.64 21.02 8.88L21.02 8.88L21.02 8.88Q20.76 9.11 20.65 9.55L20.65 9.55L20.65 9.55Q20.55 9.86 20.55 10.36L20.55 10.36L20.55 10.36Q20.55 10.79 20.64 11.16L20.64 11.16L20.64 11.16Q20.76 11.61 21.03 11.87L21.03 11.87L21.03 11.87Q21.29 12.12 21.70 12.12L21.70 12.12ZM28.34 14L28.34 14Q28.11 14 28.04 13.79L28.04 13.79L25.90 7.04L25.90 7.04Q25.89 7.01 25.89 6.94L25.89 6.94L25.89 6.94Q25.89 6.76 26.11 6.76L26.11 6.76L28.11 6.76L28.11 6.76Q28.22 6.76 28.30 6.83L28.30 6.83L28.30 6.83Q28.38 6.89 28.39 6.99L28.39 6.99L29.30 10.71L29.30 10.71Q29.33 10.77 29.37 10.77L29.37 10.77L29.37 10.77Q29.40 10.77 29.41 10.71L29.41 10.71L30.31 6.99L30.31 6.99Q30.32 6.89 30.40 6.83L30.40 6.83L30.40 6.83Q30.48 6.76 30.59 6.76L30.59 6.76L32.61 6.78L32.61 6.78Q32.75 6.78 32.80 6.85L32.80 6.85L32.80 6.85Q32.86 6.92 32.82 7.06L32.82 7.06L30.69 13.79L30.69 13.79Q30.63 14 30.39 14L30.39 14L28.34 14ZM34.97 6.29L34.97 6.29Q34.36 6.29 33.98 5.91L33.98 5.91L33.98 5.91Q33.60 5.54 33.60 4.94L33.60 4.94L33.60 4.94Q33.60 4.35 33.98 3.99L33.98 3.99L33.98 3.99Q34.36 3.63 34.97 3.63L34.97 3.63L34.97 3.63Q35.59 3.63 35.97 3.99L35.97 3.99L35.97 3.99Q36.34 4.35 36.34 4.94L36.34 4.94L36.34 4.94Q36.34 5.54 35.97 5.91L35.97 5.91L35.97 5.91Q35.59 6.29 34.97 6.29L34.97 6.29ZM34.06 14L34.06 14Q33.95 14 33.88 13.93L33.88 13.93L33.88 13.93Q33.81 13.86 33.81 13.75L33.81 13.75L33.81 7.01L33.81 7.01Q33.81 6.90 33.88 6.83L33.88 6.83L33.88 6.83Q33.95 6.76 34.06 6.76L34.06 6.76L35.88 6.76L35.88 6.76Q35.99 6.76 36.06 6.83L36.06 6.83L36.06 6.83Q36.13 6.90 36.13 7.01L36.13 7.01L36.13 13.75L36.13 13.75Q36.13 13.86 36.06 13.93L36.06 13.93L36.06 13.93Q35.99 14 35.88 14L35.88 14L34.06 14ZM41.05 12.14L41.05 12.14Q41.48 12.14 41.85 12.00L41.85 12.00L41.85 12.00Q42.22 11.87 42.48 11.65L42.48 11.65L42.48 11.65Q42.56 11.55 42.66 11.55L42.66 11.55L42.66 11.55Q42.74 11.55 42.83 11.65L42.83 11.65L43.69 12.68L43.69 12.68Q43.78 12.78 43.78 12.87L43.78 12.87L43.78 12.87Q43.78 12.96 43.69 13.05L43.69 13.05L43.69 13.05Q43.22 13.55 42.49 13.83L42.49 13.83L42.49 13.83Q41.76 14.11 40.94 14.11L40.94 14.11L40.94 14.11Q39.98 14.11 39.25 13.77L39.25 13.77L39.25 13.77Q38.51 13.43 38.04 12.81L38.04 12.81L38.04 12.81Q37.27 11.83 37.27 10.32L37.27 10.32L37.27 10.32Q37.27 9.65 37.42 9.06L37.42 9.06L37.42 9.06Q37.73 7.97 38.63 7.30L38.63 7.30L38.63 7.30Q39.52 6.64 40.73 6.64L40.73 6.64L40.73 6.64Q42.13 6.64 42.99 7.50L42.99 7.50L42.99 7.50Q43.85 8.37 44.11 9.93L44.11 9.93L44.11 9.93Q44.17 10.32 44.20 10.78L44.20 10.78L44.20 10.78Q44.20 11.03 43.95 11.03L43.95 11.03L39.72 11.03L39.72 11.03Q39.68 11.03 39.64 11.06L39.64 11.06L39.64 11.06Q39.61 11.09 39.62 11.14L39.62 11.14L39.70 11.42L39.70 11.42Q39.84 11.76 40.19 11.95L40.19 11.95L40.19 11.95Q40.54 12.14 41.05 12.14L41.05 12.14ZM40.68 8.64L40.68 8.64Q39.97 8.64 39.72 9.32L39.72 9.32L39.72 9.32Q39.66 9.46 39.65 9.53L39.65 9.53L39.65 9.56L39.65 9.56Q39.65 9.65 39.75 9.65L39.75 9.65L41.66 9.65L41.66 9.65Q41.72 9.65 41.74 9.61L41.74 9.61L41.74 9.61Q41.76 9.58 41.75 9.53L41.75 9.53L41.69 9.35L41.69 9.35Q41.58 9.02 41.33 8.83L41.33 8.83L41.33 8.83Q41.08 8.64 40.68 8.64L40.68 8.64Z"></path></g><defs data-v-423bf9ae=""><linearGradient data-v-423bf9ae="" gradientTransform="rotate(25)" id="47173599-4e7d-4897-97db-eb97900b3f6b" x1="0%" y1="0%" x2="100%" y2="0%"><stop data-v-423bf9ae="" offset="0%" style="stop-color: rgb(218, 47, 104); stop-opacity: 1;"></stop><stop data-v-423bf9ae="" offset="100%" style="stop-color: rgb(248, 158, 0); stop-opacity: 1;"></stop></linearGradient></defs><g data-v-423bf9ae="" id="fcb11ed4-197c-45dc-b434-679cf381ca51" transform="matrix(1.1159389346281836,0,0,1.1159389346281836,-2.7302485107162795,-4.541946984461994)" stroke="none" fill="url(#47173599-4e7d-4897-97db-eb97900b3f6b)"><path d="M58.478 26.77H21.38c-5.182 0-9.423 4.24-9.423 9.423v25.922c0 5.183 4.24 9.423 9.423 9.423h37.099c5.182 0 9.423-4.24 9.423-9.423V36.193c-.001-5.182-4.241-9.423-9.424-9.423zm-33.71 4.9c-3.613 1.936-6.221 4.771-7.854 6.968-.619.833-1.939.251-1.736-.766 1.244-6.215 5.653-7.783 9.059-8.024 1.04-.074 1.45 1.33.531 1.822zm46.658-14.378H57.717a20.6 20.6 0 0 0-6.759-3.508l5.172-5.171a2.306 2.306 0 1 0-3.262-3.262l-7.191 7.191a2.32 2.32 0 0 0-.303.374c-.125-.002-.249-.006-.374-.006s-.249.003-.373.005a2.32 2.32 0 0 0-.303-.374L37.133 5.35a2.306 2.306 0 1 0-3.262 3.262l5.172 5.171a20.59 20.59 0 0 0-6.759 3.508h-13.71c-8.848 0-16.087 7.239-16.087 16.087v31.55c0 8.848 7.239 16.087 16.087 16.087h.213v1.596a2.721 2.721 0 0 0 2.713 2.713h1.651a2.721 2.721 0 0 0 2.713-2.713v-1.596h38.272v.924a2.721 2.721 0 0 0 2.713 2.713H68.5a2.721 2.721 0 0 0 2.713-2.713v-.924h.213c8.848 0 16.087-7.239 16.087-16.087v-31.55c0-8.847-7.239-16.086-16.087-16.086zm-51.15 57.666c-6.373 0-11.586-5.214-11.586-11.586V35.163c0-6.373 5.214-11.586 11.586-11.586h39.306c6.373 0 11.587 5.214 11.587 11.586v28.209c0 6.373-5.214 11.586-11.587 11.586H20.276zm58.743-15.554a2.562 2.562 0 1 1 0-5.124 2.562 2.562 0 0 1 0 5.124zm0-7.687a2.562 2.562 0 1 1 0-5.124 2.562 2.562 0 0 1 0 5.124zm0-7.688a2.562 2.562 0 1 1 0-5.124 2.562 2.562 0 0 1 0 5.124z"></path></g><!----></svg>